<svg width="953" height="217" viewBox="0 0 953 217" fill="none" xmlns="http://www.w3.org/2000/svg">
<path fill-rule="evenodd" clip-rule="evenodd" d="M361 205C433.044 205 495.092 162.199 523.102 100.637C544.284 126.497 576.465 143 612.5 143C655.255 143 692.584 119.769 712.553 85.2417C719.567 108.964 732.002 130.36 748.423 147.995C737.406 154.403 730 166.337 730 180C730 200.435 746.565 217 767 217C785.287 217 800.476 203.733 803.466 186.299C822.121 194.053 842.584 198.333 864.046 198.333C951.281 198.333 1022 127.615 1022 40.3789C1022 -46.857 951.281 -117.576 864.046 -117.576C798.093 -117.576 741.581 -77.1541 717.932 -19.7334C699.877 -59.9731 659.461 -88 612.5 -88C576.63 -88 544.579 -71.6482 523.394 -45.9922C495.525 -107.9 433.296 -151 361 -151C273.428 -151 200.626 -87.7604 185.771 -4.45782C166.618 -28.1512 137.317 -43.3023 104.478 -43.3023C46.7763 -43.3023 0 3.47398 0 61.1754C0 118.877 46.7763 165.653 104.478 165.653C110.586 165.653 116.572 165.129 122.392 164.123C129.868 177.757 144.354 187 161 187C185.301 187 205 167.301 205 143C205 132.069 201.014 122.069 194.416 114.374C196.531 110.806 198.44 107.102 200.126 103.277C228.692 163.419 289.99 205 361 205Z" fill="#00051F"/>
</svg>
